# xmcd CD database file
# Copyright (C) 1993-1998 Ti Kan
#
# Track frame offsets:
#  150
#  13065
#  23475
#  35957
#  47870
#  58500
#  70752
#  82755
#  96435
#  107260
#  117782
#  129545
#  141885
#  155957
#  165965
#  177247
#  189320
#  201145
#  213667
#  225812
#  237565
#
# Disc length: 3329 seconds
#
# Revision: 1
# Processed by: cddbd v1.4b41PL1 Copyright (c) Steve Scherf et al.
# Submitted via: CDWizzard Release:4.35
#
DISCID=180cff15
DTITLE=Jive Five - Jive Five - Complete United Artists  Recordings 
DYEAR=1900
DGENRE=
TTITLE0=United
TTITLE1=Prove Every Word You Say
TTITLE2=Ha! Ha!
TTITLE3=I'm A Happy Man
TTITLE4=Kiss, Kiss, Kiss
TTITLE5=Never Met A Girl (I Didn't Like)
TTITLE6=Hang On The Corner
TTITLE7=A Bench In The Park
TTITLE8=Please, Baby, Please (Come On Back To Me)
TTITLE9=Main Street (Anywhere USA)
TTITLE10=I Remember When
TTITLE11=Falling Tears
TTITLE12=Then Came Heart Break
TTITLE13=Goin' Wild
TTITLE14=In My Neighborhood
TTITLE15=Another Rainy Day
TTITLE16=Why Why Why
TTITLE17=You're A Puzzle
TTITLE18=You Gotta Feel It
TTITLE19=You Promised Me Great Things
TTITLE20=You
EXTD=
EXTT0=
EXTT1=
EXTT2=
EXTT3=
EXTT4=
EXTT5=
EXTT6=
EXTT7=
EXTT8=
EXTT9=
EXTT10=
EXTT11=
EXTT12=
EXTT13=
EXTT14=
EXTT15=
EXTT16=
EXTT17=
EXTT18=
EXTT19=
EXTT20=
PLAYORDER=
